<svg xmlns="http://www.w3.org/2000/svg" xmlns:xlink="http://www.w3.org/1999/xlink" width="161.693" height="73.823" viewBox="0 0 161.693 73.823">
  <defs>
    <clipPath id="clip-path">
      <path id="Path_135" data-name="Path 135" d="M0,25.06H161.692V-48.763H0Z" transform="translate(0 48.763)" fill="none"/>
    </clipPath>
  </defs>
  <g id="Group_152" data-name="Group 152" transform="translate(0 48.763)">
    <g id="Group_126" data-name="Group 126" transform="translate(0.001 -46.752)">
      <path id="Path_131" data-name="Path 131" d="M9.61,0-5.778,18.748V0H-18.7V52.973H-5.778V36.382L-1.3,31.249,10.954,52.973H26.193L7.445,21.428,25.6,0Z" transform="translate(18.699)" fill="#2b2e34"/>
    </g>
    <g id="Group_127" data-name="Group 127" transform="translate(120.947 -46.752)">
      <path id="Path_132" data-name="Path 132" d="M0,0V52.973H40.745V41.366H13.073V0Z" fill="#2b2e34"/>
    </g>
    <g id="Group_128" data-name="Group 128" transform="translate(47.178 -48.763)">
      <path id="Path_133" data-name="Path 133" d="M12.018,0l-35.4,54.984h70.8Z" transform="translate(23.385)" fill="#ffa830"/>
    </g>
    <g id="Group_130" data-name="Group 130" transform="translate(0 -48.763)" clip-path="url(#clip-path)">
      <g id="Group_129" data-name="Group 129" transform="translate(148.249 2.011)">
        <path id="Path_134" data-name="Path 134" d="M1.778,1.807A1.764,1.764,0,0,0,.665.087a1.679,1.679,0,0,0,1-1.573A1.992,1.992,0,0,0-.573-3.516H-3.459V3.9h3A2.009,2.009,0,0,0,1.778,1.807M.541-1.443C.541-.756.05-.381-.669-.381H-2.336V-2.506H-.669c.719,0,1.21.375,1.21,1.063m.114,3.2A1.1,1.1,0,0,1-.566,2.891h-1.77V.631h1.77A1.093,1.093,0,0,1,.654,1.754" transform="translate(3.459 3.516)" fill="#2b2e34"/>
      </g>
    </g>
    <g id="Group_131" data-name="Group 131" transform="translate(155.15 -46.752)">
      <path id="Path_136" data-name="Path 136" d="M1.839,0-.287,4.614-2.453,0H-3.578V7.417h1.125V2.459L-.7,6.072H.13L1.839,2.459V7.417H2.964V0Z" transform="translate(3.578)" fill="#2b2e34"/>
    </g>
    <g id="Group_132" data-name="Group 132" transform="translate(0 14.376)">
      <path id="Path_137" data-name="Path 137" d="M2,0-1.8,4.611V0H-3.9V10.593H-1.8V7.409L-.4,5.773l2.769,4.82H4.819L.989,4.21,4.562,0Z" transform="translate(3.901)" fill="#2b2e34"/>
    </g>
    <g id="Group_140" data-name="Group 140" transform="translate(0 -48.763)" clip-path="url(#clip-path)">
      <g id="Group_133" data-name="Group 133" transform="translate(9.347 65.891)">
        <path id="Path_138" data-name="Path 138" d="M2.215,2.662v-5.1c0-1.815-1.151-2.739-3.361-2.739A3.348,3.348,0,0,0-3.992-4.108L-2.736-2.9a1.709,1.709,0,0,1,1.514-.64c1.045,0,1.468.372,1.468,1.222v.386H-1.615C-3.447-1.936-4.31-.924-4.31.311a2.46,2.46,0,0,0,.651,1.741,2.716,2.716,0,0,0,2.014.684A2.418,2.418,0,0,0,.292,1.993v.669ZM.247-.195A1.263,1.263,0,0,1-.041.788a1.579,1.579,0,0,1-1.241.372C-2.054,1.16-2.418.8-2.418.267c0-.551.394-.878,1.105-.878H.247Z" transform="translate(4.31 5.18)" fill="#2b2e34"/>
      </g>
      <g id="Group_134" data-name="Group 134" transform="translate(17.911 63.139)">
        <path id="Path_139" data-name="Path 139" d="M1.161,3.6V1.96H.4c-.5,0-.7-.238-.7-.7V-7H-2.26V1.38A2.124,2.124,0,0,0,.041,3.6Z" transform="translate(2.26 6.998)" fill="#2b2e34"/>
      </g>
      <g id="Group_135" data-name="Group 135" transform="translate(22.249 63.913)">
        <path id="Path_140" data-name="Path 140" d="M1.424,3.334V1.7H.712A.612.612,0,0,1,.031,1V-2.723H1.424V-4.195H.031V-6.487H-1.936v2.292H-2.77v1.472h.834V1.117A2.119,2.119,0,0,0,.349,3.334Z" transform="translate(2.77 6.487)" fill="#2b2e34"/>
      </g>
      <g id="Group_136" data-name="Group 136" transform="translate(27.826 65.892)">
        <path id="Path_141" data-name="Path 141" d="M2.333,1.551V.687c0-2.127-1.241-3.7-3.437-3.7C-3.147-3.018-4.54-1.589-4.54.941c0,3.14,1.786,3.973,3.649,3.973a3.787,3.787,0,0,0,3-1.22L.91,2.547a2.2,2.2,0,0,1-1.786.73A1.615,1.615,0,0,1-2.6,1.551ZM.4.226h-3a2.112,2.112,0,0,1,.182-.834A1.372,1.372,0,0,1-1.1-1.41a1.372,1.372,0,0,1,1.317.8A2.112,2.112,0,0,1,.4.226" transform="translate(4.54 3.018)" fill="#2b2e34"/>
      </g>
      <g id="Group_137" data-name="Group 137" transform="translate(36.509 65.891)">
        <path id="Path_142" data-name="Path 142" d="M2.225,2.662V-2.293a2.846,2.846,0,0,0-.8-2.2A2.586,2.586,0,0,0-.439-5.18a2.722,2.722,0,0,0-1.968.8v-.713H-4.33V2.662h1.97V-2.025A1.266,1.266,0,0,1-1.045-3.439a1.257,1.257,0,0,1,1.3,1.414V2.662Z" transform="translate(4.33 5.18)" fill="#2b2e34"/>
      </g>
      <g id="Group_138" data-name="Group 138" transform="translate(45.178 65.891)">
        <path id="Path_143" data-name="Path 143" d="M1.958.248A2.4,2.4,0,0,0,.1-.482,2.691,2.691,0,0,0-1.887.352V-.391H-3.81V7.36h1.968V2.688A1.3,1.3,0,0,1-.57,1.259a1.32,1.32,0,0,1,1.045.462Z" transform="translate(3.81 0.482)" fill="#2b2e34"/>
      </g>
      <g id="Group_139" data-name="Group 139" transform="translate(51.668 65.892)">
        <path id="Path_144" data-name="Path 144" d="M2.333,1.551V.687c0-2.127-1.241-3.7-3.437-3.7C-3.147-3.018-4.54-1.589-4.54.941c0,3.14,1.786,3.973,3.649,3.973a3.787,3.787,0,0,0,3-1.22L.91,2.547a2.2,2.2,0,0,1-1.786.73A1.615,1.615,0,0,1-2.6,1.551ZM.4.226h-3a2.112,2.112,0,0,1,.182-.834A1.372,1.372,0,0,1-1.1-1.41a1.372,1.372,0,0,1,1.317.8A2.112,2.112,0,0,1,.4.226" transform="translate(4.54 3.018)" fill="#2b2e34"/>
      </g>
    </g>
    <path id="Path_146" data-name="Path 146" d="M39.844-5.519h2.013V-7.1H39.844Zm0-1.577.03,10.653h1.968V-4.194H39.874Z" transform="translate(20.477 21.413)" fill="#2b2e34"/>
    <g id="Group_150" data-name="Group 150" transform="translate(0 -48.763)" clip-path="url(#clip-path)">
      <g id="Group_141" data-name="Group 141" transform="translate(64.508 65.891)">
        <path id="Path_147" data-name="Path 147" d="M2.225,2.662V-2.293a2.846,2.846,0,0,0-.8-2.2A2.586,2.586,0,0,0-.439-5.18a2.722,2.722,0,0,0-1.968.8v-.713H-4.33V2.662h1.968V-2.025A1.267,1.267,0,0,1-1.045-3.439a1.257,1.257,0,0,1,1.3,1.414V2.662Z" transform="translate(4.33 5.18)" fill="#2b2e34"/>
      </g>
      <g id="Group_142" data-name="Group 142" transform="translate(72.784 65.892)">
        <path id="Path_148" data-name="Path 148" d="M2.333,1.551V.687c0-2.127-1.241-3.7-3.437-3.7C-3.147-3.018-4.54-1.589-4.54.941c0,3.14,1.786,3.973,3.649,3.973a3.787,3.787,0,0,0,3-1.22L.91,2.547a2.2,2.2,0,0,1-1.786.73A1.615,1.615,0,0,1-2.6,1.551ZM.4.226h-3a2.112,2.112,0,0,1,.182-.834A1.372,1.372,0,0,1-1.1-1.41a1.372,1.372,0,0,1,1.317.8A2.112,2.112,0,0,1,.4.226" transform="translate(4.54 3.018)" fill="#2b2e34"/>
      </g>
      <g id="Group_143" data-name="Group 143" transform="translate(81.466 65.891)">
        <path id="Path_149" data-name="Path 149" d="M1.959.248A2.4,2.4,0,0,0,.095-.482,2.694,2.694,0,0,0-1.888.352V-.391H-3.811V7.36h1.968V2.688A1.3,1.3,0,0,1-.57,1.259a1.322,1.322,0,0,1,1.045.462Z" transform="translate(3.811 0.482)" fill="#2b2e34"/>
      </g>
      <g id="Group_144" data-name="Group 144" transform="translate(92.564 63.138)">
        <path id="Path_150" data-name="Path 150" d="M2.513,2.6A2.565,2.565,0,0,0,.757.087,2.432,2.432,0,0,0,2.345-2.234c0-1.771-1.3-2.828-3.179-2.828H-4.89V5.532H-.7c1.906,0,3.209-1.011,3.209-2.931M1.194-2.219C1.194-.955.271-.375-.925-.375H-3.741V-4.049H-.925c1.2,0,2.119.565,2.119,1.83m.168,4.79A1.924,1.924,0,0,1-.8,4.521H-3.741V.638H-.8A1.913,1.913,0,0,1,1.362,2.571" transform="translate(4.89 5.062)" fill="#2b2e34"/>
      </g>
      <g id="Group_145" data-name="Group 145" transform="translate(101.885 66.323)">
        <path id="Path_151" data-name="Path 151" d="M2,2.516v-4.97c0-1.591-.984-2.44-2.982-2.44A2.906,2.906,0,0,0-3.611-3.808l.74.669A1.969,1.969,0,0,1-.992-3.972c1.359,0,1.906.536,1.906,1.606v.7H-1.326C-2.992-1.666-3.9-.832-3.9.448a2.1,2.1,0,0,0,.559,1.488A2.692,2.692,0,0,0-1.234,2.6,2.64,2.64,0,0,0,.914,1.816v.7ZM.914-.073A1.676,1.676,0,0,1,.537,1.191a2.21,2.21,0,0,1-1.668.492c-1.179,0-1.709-.4-1.709-1.25S-2.3-.862-1.175-.862H.914Z" transform="translate(3.9 4.895)" fill="#2b2e34"/>
      </g>
      <g id="Group_146" data-name="Group 146" transform="translate(110.356 66.412)">
        <path id="Path_152" data-name="Path 152" d="M1.989,2.485V-4.836H.9v4.51A1.745,1.745,0,0,1-.963,1.622,1.706,1.706,0,0,1-2.778-.326v-4.51H-3.87V-.163A2.7,2.7,0,0,0-3.113,1.89a2.676,2.676,0,0,0,1.923.684,2.752,2.752,0,0,0,2.1-.907v.818Z" transform="translate(3.87 4.836)" fill="#2b2e34"/>
      </g>
      <g id="Group_147" data-name="Group 147" transform="translate(122.479 63.049)">
        <path id="Path_153" data-name="Path 153" d="M2.569,2.314V.632h-3.8v1H1.42v.8A2.747,2.747,0,0,1,.814,4.351a2.654,2.654,0,0,1-2.045.908,2.624,2.624,0,0,1-1.862-.743c-.68-.684-.755-1.414-.755-3.632s.076-2.931.755-3.615a2.637,2.637,0,0,1,1.862-.758A2.581,2.581,0,0,1,1.39-1.332H2.539A3.653,3.653,0,0,0-1.231-4.5,3.853,3.853,0,0,0-3.986-3.4C-5-2.4-5-1.362-5,.884s0,3.29,1.013,4.286a3.876,3.876,0,0,0,2.755,1.1,3.882,3.882,0,0,0,2.876-1.22,3.62,3.62,0,0,0,.923-2.739" transform="translate(4.999 4.502)" fill="#2b2e34"/>
      </g>
      <g id="Group_148" data-name="Group 148" transform="translate(132.527 66.323)">
        <path id="Path_154" data-name="Path 154" d="M3.618,2.516V-2.171a2.7,2.7,0,0,0-.8-2.039A2.743,2.743,0,0,0,.893-4.895,2.863,2.863,0,0,0-1.56-3.675a2.465,2.465,0,0,0-2.286-1.22A2.738,2.738,0,0,0-5.95-4v-.8H-7.04V2.516h1.09V-1.993a1.746,1.746,0,0,1,1.862-1.95,1.718,1.718,0,0,1,1.832,1.95V2.516h1.09V-2.112A1.726,1.726,0,0,1,.695-3.943a1.718,1.718,0,0,1,1.832,1.95V2.516Z" transform="translate(7.04 4.895)" fill="#2b2e34"/>
      </g>
      <g id="Group_149" data-name="Group 149" transform="translate(145.83 63.139)">
        <path id="Path_155" data-name="Path 155" d="M2.009,2.354A4.32,4.32,0,0,0,1.1-.756,2.618,2.618,0,0,0-.716-1.4a2.417,2.417,0,0,0-2.1.937V-4.58H-3.909V6.014H-2.82V5.136a2.407,2.407,0,0,0,2.1.967A2.618,2.618,0,0,0,1.1,5.463a4.318,4.318,0,0,0,.908-3.11m-1.089,0c0,1.429-.244,2.8-1.864,2.8S-2.82,3.783-2.82,2.354s.257-2.8,1.877-2.8S.92.926.92,2.354" transform="translate(3.909 4.58)" fill="#2b2e34"/>
      </g>
    </g>
    <g id="Group_151" data-name="Group 151" transform="translate(154.273 14.376)">
      <path id="Path_157" data-name="Path 157" d="M2.127,0V4.746H-2.988V0H-4.139V10.593h1.151V5.757H2.127v4.835H3.279V0Z" transform="translate(4.139)" fill="#2b2e34"/>
    </g>
  </g>
</svg>
